# xmcd
# 
# Track frame offsets:
#     150
#     16274
#     27757
#     39628
#     50191
#     61897
#     75066
#     86375
#     104513
#     122234
#     142113
#     155020
# 
# Disc length: 2184
# 
# Revision: 0
# Processed by: cddbd v1.5.2PL0 Copyright (c) Steve Scherf et al.
# Submitted via: fre:ac v1.0.31
# 
DISCID=9708860c
DTITLE=The Pretty Pollys - Lookin 'n for Henry Lee
DYEAR=2018
DGENRE=Folk
TTITLE0=By the marks
TTITLE1=How many biscuits can you eat
TTITLE2=The one i love is gone
TTITLE3=Please don't fall in love with me
TTITLE4=Caleb Meyer
TTITLE5=Katy dear
TTITLE6=A fair lady of the plains
TTITLE7=The long black veil
TTITLE8=I never will marry
TTITLE9=I am the man
TTITLE10=A round the corner
TTITLE11=Didn't leave nobody but the baby
EXTD=
EXTT0=
EXTT1=
EXTT2=
EXTT3=
EXTT4=
EXTT5=
EXTT6=
EXTT7=
EXTT8=
EXTT9=
EXTT10=
EXTT11=
PLAYORDER=
